<svg xmlns="http://www.w3.org/2000/svg" xmlns:xlink="http://www.w3.org/1999/xlink" width="1080" zoomAndPan="magnify" viewBox="0 0 810 809.999993" height="1080" preserveAspectRatio="xMidYMid meet" version="1.0"><defs><clipPath id="2e59e43712"><path d="M 405 0 C 181.324219 0 0 181.324219 0 405 C 0 628.675781 181.324219 810 405 810 C 628.675781 810 810 628.675781 810 405 C 810 181.324219 628.675781 0 405 0 Z M 405 0 " clip-rule="nonzero"/></clipPath><clipPath id="7e3890a571"><path d="M 0 0 L 810 0 L 810 810 L 0 810 Z M 0 0 " clip-rule="nonzero"/></clipPath><clipPath id="bd5e2ca48e"><path d="M 405 0 C 181.324219 0 0 181.324219 0 405 C 0 628.675781 181.324219 810 405 810 C 628.675781 810 810 628.675781 810 405 C 810 181.324219 628.675781 0 405 0 Z M 405 0 " clip-rule="nonzero"/></clipPath><clipPath id="81c7094dc8"><rect x="0" width="810" y="0" height="810"/></clipPath><clipPath id="59a4319854"><path d="M 37.253906 37.253906 L 773 37.253906 L 773 773 L 37.253906 773 Z M 37.253906 37.253906 " clip-rule="nonzero"/></clipPath><clipPath id="1622f6f3bf"><path d="M 299 325 L 501 325 L 501 485.398438 L 299 485.398438 Z M 299 325 " clip-rule="nonzero"/></clipPath></defs><g clip-path="url(#2e59e43712)"><g transform="matrix(1, 0, 0, 1, 0, 0.000000000000039746)"><g clip-path="url(#81c7094dc8)"><g clip-path="url(#7e3890a571)"><g clip-path="url(#bd5e2ca48e)"><rect x="-178.2" width="1166.4" fill="#ffffff" height="1166.39999" y="-178.199998" fill-opacity="1"/></g></g></g></g></g><g clip-path="url(#59a4319854)"><path fill="#000000" d="M 746.207031 462.667969 C 760.640625 462.667969 772.453125 450.855469 772.453125 436.421875 L 772.453125 372.960938 C 772.453125 358.523438 760.640625 346.714844 746.207031 346.714844 L 718.953125 346.714844 C 704.519531 346.714844 689.246094 335.417969 684.992188 321.625 L 661.738281 265.167969 C 654.914062 252.449219 657.679688 233.691406 667.878906 223.492188 L 687.171875 204.199219 C 697.371094 193.992188 697.378906 177.289062 687.171875 167.082031 L 642.300781 122.210938 C 632.089844 112 615.390625 112 605.179688 122.210938 L 585.890625 141.5 C 575.679688 151.710938 556.914062 154.464844 544.203125 147.632812 L 487.75 124.386719 C 473.953125 120.144531 462.667969 104.859375 462.667969 90.425781 L 462.667969 63.175781 C 462.667969 48.738281 450.855469 36.929688 436.421875 36.929688 L 372.960938 36.929688 C 358.523438 36.929688 346.714844 48.738281 346.714844 63.175781 L 346.714844 90.425781 C 346.714844 104.859375 335.417969 120.144531 321.632812 124.386719 L 265.179688 147.632812 C 252.457031 154.464844 233.699219 151.699219 223.5 141.492188 L 204.210938 122.199219 C 194 111.992188 177.300781 111.992188 167.089844 122.199219 L 122.21875 167.070312 C 112.007812 177.28125 112.007812 193.980469 122.21875 204.191406 L 141.519531 223.480469 C 151.726562 233.691406 154.484375 252.449219 147.660156 265.167969 L 124.40625 321.625 C 120.164062 335.417969 104.878906 346.707031 90.445312 346.707031 L 63.199219 346.707031 C 48.765625 346.707031 36.957031 358.515625 36.957031 372.949219 L 36.957031 436.421875 C 36.957031 450.855469 48.765625 462.667969 63.199219 462.667969 L 90.445312 462.667969 C 104.878906 462.667969 120.164062 473.953125 124.40625 487.75 L 147.667969 544.210938 C 154.5 556.921875 151.734375 575.6875 141.527344 585.890625 L 122.226562 605.1875 C 112.019531 615.390625 112.019531 632.089844 122.226562 642.300781 L 167.089844 687.171875 C 177.300781 697.378906 194 697.371094 204.210938 687.171875 L 223.507812 667.871094 C 233.71875 657.671875 252.476562 654.90625 265.1875 661.738281 L 321.640625 684.992188 C 335.4375 689.234375 346.722656 704.511719 346.722656 718.953125 L 346.722656 746.207031 C 346.722656 760.640625 358.535156 772.453125 372.96875 772.453125 L 436.429688 772.453125 C 450.863281 772.453125 462.675781 760.640625 462.675781 746.207031 L 462.675781 718.945312 C 462.675781 704.511719 473.960938 689.234375 487.757812 684.984375 L 544.210938 661.738281 C 556.921875 654.90625 575.6875 657.664062 585.890625 667.871094 L 605.199219 687.171875 C 615.398438 697.378906 632.109375 697.371094 642.308594 687.171875 L 687.179688 642.300781 C 697.378906 632.097656 697.390625 615.390625 687.179688 605.179688 L 667.890625 585.890625 C 657.679688 575.679688 654.925781 556.914062 661.75 544.203125 L 684.992188 487.75 C 689.234375 473.953125 704.519531 462.667969 718.964844 462.667969 Z M 404.691406 555.988281 C 321.132812 555.988281 253.394531 488.246094 253.394531 404.691406 C 253.394531 321.125 321.132812 253.386719 404.691406 253.386719 C 488.246094 253.386719 555.996094 321.125 555.996094 404.691406 C 555.996094 488.246094 488.246094 555.988281 404.691406 555.988281 Z M 404.691406 555.988281 " fill-opacity="1" fill-rule="nonzero"/></g><g clip-path="url(#1622f6f3bf)"><path fill="#000000" d="M 493.628906 330.695312 L 492.359375 329.746094 C 488.242188 326.417969 483.175781 324.992188 478.425781 325.46875 C 473.359375 325.945312 468.765625 328.160156 465.441406 332.121094 L 422.6875 382.496094 L 397.347656 413.066406 L 378.820312 435.402344 L 366.152344 421.9375 L 359.027344 414.492188 L 334.007812 388.355469 C 330.367188 384.554688 325.617188 382.652344 320.546875 382.335938 C 315.796875 382.019531 310.730469 384.078125 307.089844 387.566406 L 305.820312 388.832031 C 298.0625 395.960938 297.902344 408.316406 305.03125 415.917969 L 329.734375 441.898438 L 336.859375 449.660156 L 365.363281 479.601562 C 368.6875 482.925781 373.121094 485.144531 377.398438 485.300781 C 377.714844 485.300781 377.714844 485.300781 377.871094 485.300781 C 378.1875 485.300781 378.347656 485.300781 378.820312 485.300781 C 378.820312 485.300781 378.820312 485.300781 379.140625 485.300781 C 379.929688 485.300781 380.5625 485.300781 381.515625 485.300781 C 386.582031 484.828125 391.171875 482.609375 394.5 478.648438 L 436.9375 428.277344 L 453.566406 408.15625 L 496.003906 357.785156 C 502.652344 349.703125 501.703125 337.664062 493.628906 330.695312 Z M 493.628906 330.695312 " fill-opacity="1" fill-rule="nonzero"/></g></svg>