<svg xmlns="http://www.w3.org/2000/svg" xmlns:xlink="http://www.w3.org/1999/xlink" width="1080" zoomAndPan="magnify" viewBox="0 0 810 809.999993" height="1080" preserveAspectRatio="xMidYMid meet" version="1.0"><defs><clipPath id="987df95266"><path d="M 32.949219 135.144531 L 572 135.144531 L 572 674 L 32.949219 674 Z M 32.949219 135.144531 " clip-rule="nonzero"/></clipPath><clipPath id="1f8ba1e377"><path d="M 225 346 L 373 346 L 373 463.695312 L 225 463.695312 Z M 225 346 " clip-rule="nonzero"/></clipPath><clipPath id="b2727be9c7"><path d="M 442.46875 6.828125 L 505.113281 6.828125 L 505.113281 69.472656 L 442.46875 69.472656 Z M 442.46875 6.828125 " clip-rule="nonzero"/></clipPath><clipPath id="84164b14e7"><path d="M 473.792969 6.828125 C 456.492188 6.828125 442.46875 20.851562 442.46875 38.148438 C 442.46875 55.449219 456.492188 69.472656 473.792969 69.472656 C 491.089844 69.472656 505.113281 55.449219 505.113281 38.148438 C 505.113281 20.851562 491.089844 6.828125 473.792969 6.828125 Z M 473.792969 6.828125 " clip-rule="nonzero"/></clipPath><clipPath id="0eb9b3c98e"><path d="M 0.46875 0.828125 L 63.113281 0.828125 L 63.113281 63.472656 L 0.46875 63.472656 Z M 0.46875 0.828125 " clip-rule="nonzero"/></clipPath><clipPath id="bd39771621"><path d="M 31.792969 0.828125 C 14.492188 0.828125 0.46875 14.851562 0.46875 32.148438 C 0.46875 49.449219 14.492188 63.472656 31.792969 63.472656 C 49.089844 63.472656 63.113281 49.449219 63.113281 32.148438 C 63.113281 14.851562 49.089844 0.828125 31.792969 0.828125 Z M 31.792969 0.828125 " clip-rule="nonzero"/></clipPath><clipPath id="4a0c299a3b"><rect x="0" width="64" y="0" height="64"/></clipPath><clipPath id="45bc5381e8"><path d="M 601.515625 108.402344 L 664.15625 108.402344 L 664.15625 171.046875 L 601.515625 171.046875 Z M 601.515625 108.402344 " clip-rule="nonzero"/></clipPath><clipPath id="38a7ec7eb3"><path d="M 632.835938 108.402344 C 615.539062 108.402344 601.515625 122.425781 601.515625 139.722656 C 601.515625 157.023438 615.539062 171.046875 632.835938 171.046875 C 650.132812 171.046875 664.15625 157.023438 664.15625 139.722656 C 664.15625 122.425781 650.132812 108.402344 632.835938 108.402344 Z M 632.835938 108.402344 " clip-rule="nonzero"/></clipPath><clipPath id="b9601f81fb"><path d="M 0.515625 0.402344 L 63.15625 0.402344 L 63.15625 63.046875 L 0.515625 63.046875 Z M 0.515625 0.402344 " clip-rule="nonzero"/></clipPath><clipPath id="2fbb9fe8ad"><path d="M 31.835938 0.402344 C 14.539062 0.402344 0.515625 14.425781 0.515625 31.722656 C 0.515625 49.023438 14.539062 63.046875 31.835938 63.046875 C 49.132812 63.046875 63.15625 49.023438 63.15625 31.722656 C 63.15625 14.425781 49.132812 0.402344 31.835938 0.402344 Z M 31.835938 0.402344 " clip-rule="nonzero"/></clipPath><clipPath id="0b2d1a3bb6"><rect x="0" width="64" y="0" height="64"/></clipPath><clipPath id="330097f1e4"><path d="M 714.40625 369.324219 L 777.050781 369.324219 L 777.050781 431.96875 L 714.40625 431.96875 Z M 714.40625 369.324219 " clip-rule="nonzero"/></clipPath><clipPath id="2eb2ebaf33"><path d="M 745.730469 369.324219 C 728.429688 369.324219 714.40625 383.347656 714.40625 400.644531 C 714.40625 417.945312 728.429688 431.96875 745.730469 431.96875 C 763.027344 431.96875 777.050781 417.945312 777.050781 400.644531 C 777.050781 383.347656 763.027344 369.324219 745.730469 369.324219 Z M 745.730469 369.324219 " clip-rule="nonzero"/></clipPath><clipPath id="a6c396a764"><path d="M 0.40625 0.324219 L 63.050781 0.324219 L 63.050781 62.96875 L 0.40625 62.96875 Z M 0.40625 0.324219 " clip-rule="nonzero"/></clipPath><clipPath id="5169ce68ab"><path d="M 31.730469 0.324219 C 14.429688 0.324219 0.40625 14.347656 0.40625 31.644531 C 0.40625 48.945312 14.429688 62.96875 31.730469 62.96875 C 49.027344 62.96875 63.050781 48.945312 63.050781 31.644531 C 63.050781 14.347656 49.027344 0.324219 31.730469 0.324219 Z M 31.730469 0.324219 " clip-rule="nonzero"/></clipPath><clipPath id="5d2e0ca00e"><rect x="0" width="64" y="0" height="63"/></clipPath><clipPath id="e83e5dd97c"><path d="M 601.773438 636.34375 L 664.414062 636.34375 L 664.414062 698.988281 L 601.773438 698.988281 Z M 601.773438 636.34375 " clip-rule="nonzero"/></clipPath><clipPath id="257f973e8c"><path d="M 633.09375 636.34375 C 615.796875 636.34375 601.773438 650.367188 601.773438 667.664062 C 601.773438 684.964844 615.796875 698.988281 633.09375 698.988281 C 650.390625 698.988281 664.414062 684.964844 664.414062 667.664062 C 664.414062 650.367188 650.390625 636.34375 633.09375 636.34375 Z M 633.09375 636.34375 " clip-rule="nonzero"/></clipPath><clipPath id="c8f9ba8893"><path d="M 0.773438 0.34375 L 63.414062 0.34375 L 63.414062 62.988281 L 0.773438 62.988281 Z M 0.773438 0.34375 " clip-rule="nonzero"/></clipPath><clipPath id="a26f76981f"><path d="M 32.09375 0.34375 C 14.796875 0.34375 0.773438 14.367188 0.773438 31.664062 C 0.773438 48.964844 14.796875 62.988281 32.09375 62.988281 C 49.390625 62.988281 63.414062 48.964844 63.414062 31.664062 C 63.414062 14.367188 49.390625 0.34375 32.09375 0.34375 Z M 32.09375 0.34375 " clip-rule="nonzero"/></clipPath><clipPath id="96239620d4"><rect x="0" width="64" y="0" height="63"/></clipPath><clipPath id="b8b9b1ad65"><path d="M 452.5625 740.527344 L 515.207031 740.527344 L 515.207031 803.171875 L 452.5625 803.171875 Z M 452.5625 740.527344 " clip-rule="nonzero"/></clipPath><clipPath id="d1c04cafb8"><path d="M 483.886719 740.527344 C 466.585938 740.527344 452.5625 754.550781 452.5625 771.851562 C 452.5625 789.148438 466.585938 803.171875 483.886719 803.171875 C 501.183594 803.171875 515.207031 789.148438 515.207031 771.851562 C 515.207031 754.550781 501.183594 740.527344 483.886719 740.527344 Z M 483.886719 740.527344 " clip-rule="nonzero"/></clipPath><clipPath id="b951873e60"><path d="M 0.5625 0.527344 L 63.207031 0.527344 L 63.207031 63.171875 L 0.5625 63.171875 Z M 0.5625 0.527344 " clip-rule="nonzero"/></clipPath><clipPath id="5030ccae7a"><path d="M 31.886719 0.527344 C 14.585938 0.527344 0.5625 14.550781 0.5625 31.851562 C 0.5625 49.148438 14.585938 63.171875 31.886719 63.171875 C 49.183594 63.171875 63.207031 49.148438 63.207031 31.851562 C 63.207031 14.550781 49.183594 0.527344 31.886719 0.527344 Z M 31.886719 0.527344 " clip-rule="nonzero"/></clipPath><clipPath id="3ab2746b7d"><rect x="0" width="64" y="0" height="64"/></clipPath></defs><g clip-path="url(#987df95266)"><path fill="#000000" d="M 552.558594 446.941406 C 563.140625 446.941406 571.796875 438.285156 571.796875 427.703125 L 571.796875 381.191406 C 571.796875 370.609375 563.140625 361.953125 552.558594 361.953125 L 532.585938 361.953125 C 522.003906 361.953125 510.808594 353.675781 507.695312 343.566406 L 490.652344 302.1875 C 485.648438 292.867188 487.675781 279.117188 495.152344 271.640625 L 509.289062 257.503906 C 516.765625 250.019531 516.773438 237.78125 509.289062 230.296875 L 476.402344 197.410156 C 468.921875 189.925781 456.679688 189.925781 449.199219 197.410156 L 435.058594 211.546875 C 427.578125 219.03125 413.824219 221.050781 404.503906 216.042969 L 363.128906 199.007812 C 353.015625 195.898438 344.746094 184.695312 344.746094 174.113281 L 344.746094 154.140625 C 344.746094 143.5625 336.089844 134.90625 325.511719 134.90625 L 278.996094 134.90625 C 268.417969 134.90625 259.761719 143.5625 259.761719 154.140625 L 259.761719 174.113281 C 259.761719 184.695312 251.484375 195.898438 241.378906 199.007812 L 200 216.042969 C 190.679688 221.050781 176.929688 219.023438 169.453125 211.542969 L 155.316406 197.402344 C 147.832031 189.921875 135.59375 189.921875 128.109375 197.402344 L 95.222656 230.289062 C 87.738281 237.773438 87.738281 250.015625 95.222656 257.496094 L 109.367188 271.636719 C 116.851562 279.117188 118.871094 292.867188 113.867188 302.1875 L 96.824219 343.566406 C 93.714844 353.675781 82.515625 361.949219 71.933594 361.949219 L 51.96875 361.949219 C 41.386719 361.949219 32.730469 370.605469 32.730469 381.183594 L 32.730469 427.703125 C 32.730469 438.285156 41.386719 446.941406 51.96875 446.941406 L 71.933594 446.941406 C 82.515625 446.941406 93.714844 455.210938 96.824219 465.324219 L 113.875 506.707031 C 118.882812 516.023438 116.855469 529.777344 109.375 537.253906 L 95.230469 551.398438 C 87.746094 558.875 87.746094 571.113281 95.230469 578.597656 L 128.109375 611.484375 C 135.59375 618.96875 147.832031 618.960938 155.316406 611.484375 L 169.460938 597.339844 C 176.945312 589.863281 190.691406 587.835938 200.007812 592.84375 L 241.382812 609.886719 C 251.496094 612.996094 259.765625 624.191406 259.765625 634.78125 L 259.765625 654.753906 C 259.765625 665.332031 268.421875 673.988281 279.003906 673.988281 L 325.515625 673.988281 C 336.097656 673.988281 344.753906 665.332031 344.753906 654.753906 L 344.753906 634.773438 C 344.753906 624.191406 353.023438 612.996094 363.136719 609.882812 L 404.511719 592.84375 C 413.828125 587.835938 427.582031 589.855469 435.058594 597.339844 L 449.210938 611.484375 C 456.6875 618.96875 468.933594 618.960938 476.410156 611.484375 L 509.296875 578.597656 C 516.773438 571.121094 516.78125 558.875 509.296875 551.390625 L 495.160156 537.253906 C 487.675781 529.769531 485.65625 516.015625 490.65625 506.699219 L 507.695312 465.324219 C 510.804688 455.210938 522.003906 446.941406 532.59375 446.941406 Z M 302.253906 515.335938 C 241.011719 515.335938 191.363281 465.6875 191.363281 404.445312 C 191.363281 343.199219 241.011719 293.550781 302.253906 293.550781 C 363.496094 293.550781 413.148438 343.199219 413.148438 404.445312 C 413.148438 465.6875 363.496094 515.335938 302.253906 515.335938 Z M 302.253906 515.335938 " fill-opacity="1" fill-rule="nonzero"/></g><g clip-path="url(#1f8ba1e377)"><path fill="#000000" d="M 367.355469 350.199219 L 366.429688 349.503906 C 363.410156 347.0625 359.699219 346.015625 356.21875 346.367188 C 352.507812 346.714844 349.144531 348.339844 346.707031 351.246094 L 315.382812 388.203125 L 296.824219 410.628906 L 283.25 427.015625 L 273.96875 417.136719 L 268.75 411.675781 L 250.417969 392.5 C 247.75 389.710938 244.269531 388.316406 240.558594 388.085938 C 237.078125 387.851562 233.367188 389.363281 230.695312 391.921875 L 229.769531 392.851562 C 224.085938 398.078125 223.96875 407.144531 229.1875 412.722656 L 247.285156 431.78125 L 252.507812 437.476562 L 273.386719 459.4375 C 275.824219 461.878906 279.074219 463.507812 282.207031 463.621094 C 282.4375 463.621094 282.4375 463.621094 282.554688 463.621094 C 282.785156 463.621094 282.902344 463.621094 283.25 463.621094 C 283.25 463.621094 283.25 463.621094 283.480469 463.621094 C 284.0625 463.621094 284.527344 463.621094 285.222656 463.621094 C 288.933594 463.273438 292.296875 461.648438 294.734375 458.742188 L 325.824219 421.785156 L 338.003906 407.027344 L 369.097656 370.074219 C 373.96875 364.144531 373.273438 355.3125 367.355469 350.199219 Z M 367.355469 350.199219 " fill-opacity="1" fill-rule="nonzero"/></g><path stroke-linecap="butt" transform="matrix(0, -0.75, 0.75, 0, 290.252977, 126.37229)" fill="none" stroke-linejoin="miter" d="M 0.00159452 11.50124 L 128.881809 11.50124 " stroke="#000000" stroke-width="23" stroke-opacity="1" stroke-miterlimit="4"/><path stroke-linecap="butt" transform="matrix(-0.75, 0, 0, -0.75, 467.04766, 46.775343)" fill="none" stroke-linejoin="miter" d="M 0.00104667 11.502542 L 231.667725 11.502542 " stroke="#000000" stroke-width="23" stroke-opacity="1" stroke-miterlimit="4"/><path stroke-linecap="butt" transform="matrix(-0.75, -0.000000001309, 0.000000001309, -0.75, 736.527398, 413.273279)" fill="none" stroke-linejoin="miter" d="M 0.0000729485 11.49979 L 204.239667 11.499789 " stroke="#000000" stroke-width="23" stroke-opacity="1" stroke-miterlimit="4"/><path stroke-linecap="butt" transform="matrix(-0.53033, 0.53033, -0.53033, -0.53033, 629.113388, 157.258927)" fill="none" stroke-linejoin="miter" d="M -0.000950529 11.499003 L 126.018742 11.499003 " stroke="#000000" stroke-width="23" stroke-opacity="1" stroke-miterlimit="4"/><path stroke-linecap="butt" transform="matrix(0.75, -0.000000000000000465, 0.000000000000000465, 0.75, 488.785059, 207.034771)" fill="none" stroke-linejoin="miter" d="M 0.000129787 11.500514 L 97.229301 11.500514 " stroke="#000000" stroke-width="23" stroke-opacity="1" stroke-miterlimit="4"/><g clip-path="url(#b2727be9c7)"><g clip-path="url(#84164b14e7)"><g transform="matrix(1, 0, 0, 1, 442, 6)"><g clip-path="url(#4a0c299a3b)"><g clip-path="url(#0eb9b3c98e)"><g clip-path="url(#bd39771621)"><path fill="#000000" d="M 0.46875 0.828125 L 63.113281 0.828125 L 63.113281 63.472656 L 0.46875 63.472656 Z M 0.46875 0.828125 " fill-opacity="1" fill-rule="nonzero"/></g></g></g></g></g></g><path stroke-linecap="butt" transform="matrix(-0.00217049, -0.749997, 0.749997, -0.00217049, 290.531091, 780.474293)" fill="none" stroke-linejoin="miter" d="M 0.000150353 11.500261 L 127.156945 11.49846 " stroke="#000000" stroke-width="23" stroke-opacity="1" stroke-miterlimit="4"/><path stroke-linecap="butt" transform="matrix(-0.75, 0, 0, -0.75, 472.622212, 780.626405)" fill="none" stroke-linejoin="miter" d="M 0.00149063 11.501874 L 231.668169 11.501874 " stroke="#000000" stroke-width="23" stroke-opacity="1" stroke-miterlimit="4"/><path stroke-linecap="butt" transform="matrix(0.75, 0, 0, 0.75, 499.44965, 585.009423)" fill="none" stroke-linejoin="miter" d="M -0.000575498 11.497854 L 83.457762 11.497854 " stroke="#000000" stroke-width="23" stroke-opacity="1" stroke-miterlimit="4"/><path stroke-linecap="butt" transform="matrix(-0.53033, -0.53033, 0.53033, -0.53033, 619.592324, 667.09417)" fill="none" stroke-linejoin="miter" d="M -0.000947741 11.499592 L 130.603891 11.503275 " stroke="#000000" stroke-width="23" stroke-opacity="1" stroke-miterlimit="4"/><path stroke-linecap="butt" transform="matrix(0.53033, -0.53033, 0.53033, 0.53033, 469.813924, 617.627149)" fill="none" stroke-linejoin="miter" d="M 0.000683597 7.502276 L 91.401605 7.502276 " stroke="#ffffff" stroke-width="15" stroke-opacity="1" stroke-miterlimit="4"/><path stroke-linecap="butt" transform="matrix(-0.53033, -0.53033, 0.53033, -0.53033, 513.504986, 235.139627)" fill="none" stroke-linejoin="miter" d="M -0.00360649 7.500002 L 76.150324 7.500002 " stroke="#ffffff" stroke-width="15" stroke-opacity="1" stroke-miterlimit="4"/><g clip-path="url(#45bc5381e8)"><g clip-path="url(#38a7ec7eb3)"><g transform="matrix(1, 0, 0, 1, 601, 108)"><g clip-path="url(#0b2d1a3bb6)"><g clip-path="url(#b9601f81fb)"><g clip-path="url(#2fbb9fe8ad)"><path fill="#000000" d="M 0.515625 0.402344 L 63.15625 0.402344 L 63.15625 63.046875 L 0.515625 63.046875 Z M 0.515625 0.402344 " fill-opacity="1" fill-rule="nonzero"/></g></g></g></g></g></g><g clip-path="url(#330097f1e4)"><g clip-path="url(#2eb2ebaf33)"><g transform="matrix(1, 0, 0, 1, 714, 369)"><g clip-path="url(#5d2e0ca00e)"><g clip-path="url(#a6c396a764)"><g clip-path="url(#5169ce68ab)"><path fill="#000000" d="M 0.40625 0.324219 L 63.050781 0.324219 L 63.050781 62.96875 L 0.40625 62.96875 Z M 0.40625 0.324219 " fill-opacity="1" fill-rule="nonzero"/></g></g></g></g></g></g><g clip-path="url(#e83e5dd97c)"><g clip-path="url(#257f973e8c)"><g transform="matrix(1, 0, 0, 1, 601, 636)"><g clip-path="url(#96239620d4)"><g clip-path="url(#c8f9ba8893)"><g clip-path="url(#a26f76981f)"><path fill="#000000" d="M 0.773438 0.34375 L 63.414062 0.34375 L 63.414062 62.988281 L 0.773438 62.988281 Z M 0.773438 0.34375 " fill-opacity="1" fill-rule="nonzero"/></g></g></g></g></g></g><g clip-path="url(#b8b9b1ad65)"><g clip-path="url(#d1c04cafb8)"><g transform="matrix(1, 0, 0, 1, 452, 740)"><g clip-path="url(#3ab2746b7d)"><g clip-path="url(#b951873e60)"><g clip-path="url(#5030ccae7a)"><path fill="#000000" d="M 0.5625 0.527344 L 63.207031 0.527344 L 63.207031 63.171875 L 0.5625 63.171875 Z M 0.5625 0.527344 " fill-opacity="1" fill-rule="nonzero"/></g></g></g></g></g></g></svg>